<svg width="247" height="85" viewBox="0 0 247 85" fill="none" xmlns="http://www.w3.org/2000/svg">
<path d="M27.95 46.2C21.7167 46.2 17.1 44.4333 14.1 40.9C13.0333 39.6333 12.1667 37.95 11.5 35.85C10.8333 33.75 10.5 31.2 10.5 28.2C10.5 25.2 10.9833 22.5167 11.95 20.15C12.95 17.75 14.3 15.9 16 14.6C19.3 12.1667 23.2833 10.95 27.95 10.95C29.2833 10.95 30.5833 11.0667 31.85 11.3C33.1167 11.5 34.0667 11.7167 34.7 11.95L35.6 12.3L35.45 12.8C33.1833 11.9 30.6833 11.45 27.95 11.45C24.4167 11.45 21.4667 12.6 19.1 14.9C17.3 16.6 16.0333 19.1 15.3 22.4C14.8667 24.2667 14.65 26.55 14.65 29.25C14.65 31.95 15.0333 34.45 15.8 36.75C16.5667 39.0167 17.4333 40.7 18.4 41.8C19.4 42.9 20.6 43.7833 22 44.45C23.4 45.0833 24.5167 45.45 25.35 45.55C26.1833 45.65 27.1833 45.7 28.35 45.7C29.55 45.7 30.9 45.5833 32.4 45.35C33.9 45.1167 35.0333 44.9 35.8 44.7L36.95 44.35L37.1 44.85C34.5667 45.75 31.5167 46.2 27.95 46.2Z" fill="white"/>
<path d="M48.01 68C46.25 68 45.14 67.54 44.68 66.62C44.58 66.42 44.53 66.24 44.53 66.08V45.53H46.63V65.87C46.63 66.45 46.74 66.9 46.96 67.22C47.2 67.52 47.44 67.68 47.68 67.7L48.01 67.76H48.94V68H48.01ZM53.302 64.55C53.302 66.13 53.722 67.14 54.562 67.58C54.962 67.78 55.472 67.88 56.092 67.88C57.352 67.88 58.472 67.4 59.452 66.44C60.452 65.48 60.992 64.59 61.072 63.77V53H63.172V65.87C63.172 66.45 63.282 66.9 63.502 67.22C63.742 67.52 63.982 67.68 64.222 67.7L64.552 67.76H65.482V68H63.652C62.832 68 62.202 67.82 61.762 67.46C61.342 67.1 61.122 66.74 61.102 66.38L61.072 65.87V64.58C60.712 65.44 60.072 66.25 59.152 67.01C58.232 67.75 57.222 68.12 56.122 68.12C55.042 68.12 54.152 68.02 53.452 67.82C52.772 67.6 52.282 67.3 51.982 66.92C51.462 66.3 51.202 65.5 51.202 64.52V53H53.302V64.55ZM66.993 45.53H69.093V56.72C69.433 55.8 70.063 54.93 70.983 54.11C71.903 53.29 72.943 52.88 74.103 52.88C78.163 52.88 80.193 55.26 80.193 60.02C80.193 65.42 77.573 68.12 72.333 68.12C70.793 68.12 69.013 67.87 66.993 67.37V45.53ZM74.073 53.12C72.833 53.12 71.713 53.66 70.713 54.74C69.713 55.8 69.173 56.76 69.093 57.62V67.19C70.313 67.65 71.383 67.88 72.303 67.88C76.163 67.88 78.093 65.25 78.093 59.99C78.093 55.41 76.753 53.12 74.073 53.12Z" fill="white"/>
<path d="M52.59 32C51.23 32 50.3 31.74 49.8 31.22C49.34 30.78 49.11 30.4 49.11 30.08V29.45C48.13 31.23 46.56 32.12 44.4 32.12C41.88 32.12 40.45 30.98 40.11 28.7C40.07 28.46 40.05 28.22 40.05 27.98C40.05 27.72 40.09 27.44 40.17 27.14C40.25 26.84 40.48 26.51 40.86 26.15C41.62 25.43 43.29 24.99 45.87 24.83C46.51 24.77 47.1 24.74 47.64 24.74C48.18 24.74 48.67 24.76 49.11 24.8V19.82C49.07 19.8 49.07 19.71 49.11 19.55C49.15 19.37 49.11 19.15 48.99 18.89C48.89 18.61 48.75 18.34 48.57 18.08C48.39 17.82 48.07 17.6 47.61 17.42C47.15 17.22 46.55 17.12 45.81 17.12C45.07 17.12 44.2 17.26 43.2 17.54C42.22 17.8 41.5 18.06 41.04 18.32L40.92 18.11C42.7 17.29 44.51 16.88 46.35 16.88C48.41 16.88 49.77 17.25 50.43 17.99C50.95 18.57 51.21 19.18 51.21 19.82V29.87C51.21 30.45 51.32 30.9 51.54 31.22C51.78 31.52 52.02 31.68 52.26 31.7L52.59 31.76H53.52V32H52.59ZM44.88 31.88C45.94 31.88 46.89 31.52 47.73 30.8C48.59 30.06 49.05 29.35 49.11 28.67V25.04C48.57 25 48.02 24.98 47.46 24.98C46.92 24.98 46.38 25.01 45.84 25.07C44.32 25.25 43.33 25.59 42.87 26.09C42.41 26.59 42.18 27.28 42.18 28.16C42.18 28.32 42.19 28.5 42.21 28.7C42.39 30.82 43.28 31.88 44.88 31.88ZM59.5666 32C57.8066 32 56.6966 31.54 56.2366 30.62C56.1366 30.42 56.0866 30.24 56.0866 30.08V9.53H58.1866V29.87C58.1866 30.45 58.2966 30.9 58.5166 31.22C58.7566 31.52 58.9966 31.68 59.2366 31.7L59.5666 31.76H60.4966V32H59.5666ZM63.3045 24.68C63.3045 27.16 63.7345 28.98 64.5945 30.14C65.4745 31.3 66.6245 31.88 68.0445 31.88C70.0445 31.88 71.8245 31.58 73.3845 30.98L73.4745 31.19C71.8745 31.81 70.0645 32.12 68.0445 32.12C66.0445 32.12 64.4145 31.52 63.1545 30.32C61.8945 29.12 61.2645 27.27 61.2645 24.77C61.2645 22.27 61.9245 20.33 63.2445 18.95C64.5645 17.57 66.2445 16.88 68.2845 16.88C69.9245 16.88 71.3045 17.37 72.4245 18.35C73.5445 19.33 74.1045 20.78 74.1045 22.7C74.1045 22.8 74.1045 22.9 74.1045 23H63.3945C63.3345 23.54 63.3045 24.1 63.3045 24.68ZM72.0645 22.76C72.0445 20.84 71.6745 19.42 70.9545 18.5C70.2345 17.58 69.3045 17.12 68.1645 17.12C67.0245 17.12 66.0045 17.62 65.1045 18.62C64.2245 19.62 63.6645 21 63.4245 22.76H72.0645ZM87.777 32C86.957 32 86.327 31.82 85.887 31.46C85.467 31.1 85.247 30.74 85.227 30.38L85.197 29.87V20.45C85.197 18.87 84.787 17.86 83.967 17.42C83.547 17.22 83.027 17.12 82.407 17.12C81.127 17.12 79.977 17.63 78.957 18.65C77.937 19.65 77.427 20.55 77.427 21.35V32H75.327V17H77.427V20.42C77.767 19.56 78.397 18.76 79.317 18.02C80.237 17.26 81.247 16.88 82.347 16.88C83.447 16.88 84.337 16.99 85.017 17.21C85.717 17.41 86.227 17.7 86.547 18.08C87.047 18.7 87.297 19.5 87.297 20.48V29.87C87.297 30.45 87.407 30.9 87.627 31.22C87.867 31.52 88.107 31.68 88.347 31.7L88.677 31.76H89.607V32H87.777Z" fill="white"/>
<path d="M23.05 31.8C29.2833 31.8 33.9 33.5667 36.9 37.1C37.9667 38.3667 38.8333 40.05 39.5 42.15C40.1667 44.25 40.5 46.8 40.5 49.8C40.5 52.8 40.0167 55.4833 39.05 57.85C38.05 60.25 36.7 62.1 35 63.4C31.7 65.8333 27.7167 67.05 23.05 67.05C21.7167 67.05 20.4167 66.9333 19.15 66.7C17.8833 66.5 16.9333 66.2833 16.3 66.05L15.4 65.7L15.55 65.2C17.8167 66.1 20.3167 66.55 23.05 66.55C26.5833 66.55 29.5333 65.4 31.9 63.1C33.7 61.4 34.9667 58.9 35.7 55.6C36.1333 53.7333 36.35 51.45 36.35 48.75C36.35 46.05 35.9667 43.55 35.2 41.25C34.4333 38.9833 33.5667 37.3 32.6 36.2C31.6 35.1 30.4 34.2167 29 33.55C27.6 32.9167 26.4833 32.55 25.65 32.45C24.8167 32.35 23.8167 32.3 22.65 32.3C21.45 32.3 20.1 32.4167 18.6 32.65C17.1 32.8833 15.9667 33.1 15.2 33.3L14.05 33.65L13.9 33.15C16.4333 32.25 19.4833 31.8 23.05 31.8Z" fill="white"/>
</svg>
